<svg width="244" height="185" viewBox="0 0 244 185" fill="none" xmlns="http://www.w3.org/2000/svg">
<g clip-path="url(#clip0)">
<path d="M38.3893 88.0463C38.3893 87.3348 38.6712 86.6525 39.173 86.1494C39.6748 85.6464 40.3554 85.3638 41.0651 85.3638L165.333 85.3638C166.031 85.3815 166.694 85.6719 167.182 86.1732C167.669 86.6745 167.942 87.347 167.942 88.0471C167.942 88.7473 167.669 89.4197 167.182 89.921C166.694 90.4223 166.031 90.7128 165.333 90.7305L41.0651 90.7305C40.3553 90.73 39.6747 90.447 39.1729 89.9437C38.6711 89.4403 38.3893 88.7579 38.3893 88.0463Z" fill="#91A88C"/>
<path d="M110.574 88.281C110.573 87.9286 110.642 87.5796 110.777 87.2539C110.911 86.9283 111.108 86.6324 111.357 86.3831C111.605 86.1338 111.9 85.9361 112.225 85.8012C112.55 85.6662 112.898 85.5968 113.249 85.5968L117.499 85.5968C117.96 85.5968 129.277 85.6088 142.468 91.9125C150.154 95.5675 157.025 100.742 162.666 107.125C169.701 115.079 174.957 125.016 178.285 136.659C178.391 137 178.428 137.359 178.394 137.715C178.359 138.071 178.254 138.417 178.085 138.731C177.915 139.046 177.685 139.324 177.407 139.548C177.129 139.772 176.809 139.938 176.466 140.037C176.123 140.135 175.764 140.164 175.41 140.121C175.056 140.079 174.714 139.966 174.404 139.789C174.094 139.612 173.822 139.374 173.605 139.091C173.388 138.807 173.229 138.483 173.139 138.137C170.048 127.326 165.21 118.129 158.762 110.801C153.628 104.963 147.374 100.222 140.373 96.8595C128.258 91.0115 117.615 90.9584 117.509 90.9584L113.249 90.9584C112.541 90.9584 111.861 90.6765 111.359 90.1745C110.857 89.6725 110.575 88.9916 110.574 88.281Z" fill="#91A88C"/>
<path d="M22.3737 88.4916C22.3737 86.4927 22.965 84.5388 24.0727 82.8768C25.1805 81.2148 26.7549 79.9194 28.597 79.1544C30.4391 78.3895 32.4661 78.1894 34.4217 78.5793C36.3772 78.9693 38.1735 79.9318 39.5834 81.3453C40.9933 82.7587 41.9534 84.5595 42.3424 86.5199C42.7314 88.4804 42.5318 90.5125 41.7687 92.3592C41.0057 94.2059 39.7136 95.7843 38.0558 96.8948C36.3979 98.0054 34.4488 98.5981 32.4549 98.5981C29.7825 98.594 27.2207 97.5279 25.331 95.6335C23.4412 93.739 22.3778 91.1708 22.3737 88.4916ZM37.1897 88.4916C37.1897 87.5532 36.912 86.6359 36.3918 85.8557C35.8717 85.0756 35.1323 84.4676 34.2674 84.1088C33.4024 83.75 32.4508 83.6565 31.5328 83.8401C30.6148 84.0236 29.7718 84.4761 29.1104 85.1401C28.449 85.8041 27.9989 86.6499 27.8171 87.5705C27.6353 88.491 27.73 89.4449 28.0892 90.3115C28.4483 91.1781 29.0558 91.9184 29.8348 92.4388C30.6137 92.9591 31.5291 93.2362 32.4652 93.2348C33.7184 93.2316 34.9193 92.7307 35.8048 91.8416C36.6904 90.9526 37.1883 89.748 37.1897 88.4916Z" fill="#91A88C"/>
<path d="M130.352 137.398C130.352 135.4 130.943 133.446 132.051 131.784C133.159 130.122 134.733 128.826 136.575 128.061C138.418 127.296 140.445 127.096 142.4 127.486C144.356 127.876 146.152 128.839 147.562 130.252C148.972 131.666 149.932 133.466 150.321 135.427C150.71 137.387 150.51 139.419 149.747 141.266C148.984 143.113 147.692 144.691 146.034 145.802C144.376 146.912 142.427 147.505 140.433 147.505C137.761 147.501 135.199 146.435 133.309 144.541C131.419 142.646 130.356 140.078 130.352 137.398ZM145.166 137.398C145.167 136.46 144.89 135.543 144.37 134.763C143.85 133.982 143.111 133.374 142.247 133.015C141.382 132.656 140.43 132.562 139.512 132.745C138.595 132.928 137.751 133.379 137.09 134.043C136.428 134.706 135.977 135.552 135.795 136.472C135.612 137.392 135.706 138.346 136.064 139.213C136.423 140.079 137.029 140.82 137.808 141.341C138.586 141.862 139.501 142.14 140.437 142.14C141.691 142.138 142.893 141.638 143.779 140.749C144.666 139.86 145.165 138.655 145.166 137.398Z" fill="#91A88C"/>
<path d="M38.3893 88.0857C38.3893 87.3741 38.6712 86.6916 39.1729 86.1883C39.6747 85.6849 40.3553 85.4019 41.0651 85.4015L50.6986 85.4015L50.8285 85.4152C61.6376 86.4652 68.7919 90.5541 74.7501 99.0966C77.1081 102.476 79.261 106.161 81.3439 109.717C84.5374 115.183 87.555 120.346 91.2543 124.546C94.2855 127.972 97.7097 130.634 101.433 132.436C105.095 134.209 108.862 135.065 112.63 134.985L132.16 134.985C132.517 134.976 132.873 135.039 133.205 135.169C133.538 135.3 133.841 135.496 134.097 135.746C134.353 135.997 134.556 136.295 134.695 136.625C134.834 136.956 134.905 137.31 134.905 137.668C134.905 138.027 134.834 138.381 134.695 138.711C134.556 139.041 134.353 139.34 134.097 139.59C133.841 139.84 133.538 140.036 133.205 140.167C132.873 140.298 132.517 140.361 132.16 140.352L112.727 140.352C108.114 140.446 103.536 139.41 99.1176 137.268C94.7519 135.155 90.7604 132.071 87.2576 128.102C83.2029 123.508 79.9103 117.876 76.727 112.427C74.6988 108.956 72.6023 105.368 70.3656 102.165C65.354 94.9838 59.5753 91.6726 50.4389 90.7613L41.0651 90.7613C40.3567 90.7609 39.6774 90.4791 39.1759 89.9776C38.6744 89.4761 38.3916 88.7958 38.3893 88.0857Z" fill="#91A88C"/>
<path d="M130.352 38.9322C130.352 36.9333 130.943 34.9793 132.051 33.3173C133.159 31.6553 134.733 30.3599 136.575 29.595C138.418 28.8301 140.445 28.6299 142.4 29.0199C144.356 29.4098 146.152 30.3724 147.562 31.7858C148.972 33.1992 149.932 35 150.321 36.9605C150.71 38.921 150.51 40.953 149.747 42.7998C148.984 44.6465 147.692 46.2249 146.034 47.3354C144.376 48.4459 142.427 49.0387 140.433 49.0387C137.761 49.0346 135.199 47.9685 133.309 46.074C131.42 44.1796 130.356 41.6113 130.352 38.9322ZM145.166 38.9322C145.165 37.9942 144.887 37.0776 144.366 36.2982C143.846 35.5188 143.107 34.9117 142.242 34.5535C141.377 34.1954 140.426 34.1023 139.508 34.286C138.591 34.4697 137.748 34.9221 137.087 35.5858C136.426 36.2495 135.976 37.0948 135.794 38.0149C135.612 38.935 135.706 39.8884 136.065 40.7548C136.423 41.6212 137.03 42.3616 137.808 42.8823C138.586 43.4031 139.501 43.6808 140.437 43.6805C141.692 43.6791 142.895 43.1782 143.782 42.2878C144.669 41.3974 145.167 40.1905 145.166 38.9322Z" fill="#91A88C"/>
<path d="M38.3893 88.245C38.3893 87.5334 38.6712 86.8509 39.1729 86.3476C39.6747 85.8443 40.3553 85.5613 41.0651 85.5608L50.4389 85.5608C59.5753 84.6495 65.354 81.3384 70.3656 74.1576C72.6023 70.9544 74.6988 67.3657 76.7202 63.8935C79.9035 58.4446 83.1961 52.8124 87.2508 48.2182C90.7536 44.2493 94.7451 41.1659 99.1108 39.0522C103.529 36.9127 108.109 35.8763 112.72 35.9688L132.16 35.9688C132.517 35.9598 132.873 36.0225 133.205 36.1533C133.538 36.2841 133.841 36.4803 134.097 36.7303C134.353 36.9804 134.556 37.2793 134.695 37.6093C134.834 37.9394 134.905 38.294 134.905 38.6522C134.905 39.0104 134.834 39.365 134.695 39.695C134.556 40.0251 134.353 40.324 134.097 40.574C133.841 40.8241 133.538 41.0203 133.205 41.1511C132.873 41.2819 132.517 41.3446 132.16 41.3355L112.642 41.3355C108.874 41.255 105.107 42.1115 101.445 43.8844C97.7216 45.6865 94.2974 48.3381 91.2662 51.7743C87.5584 55.9745 84.5408 61.1374 81.3558 66.6034C79.273 70.1664 77.12 73.851 74.762 77.2238C68.8004 85.7629 61.6462 89.8552 50.8405 90.9052L50.7106 90.9189L41.0771 90.9189C40.7254 90.9203 40.377 90.8522 40.0516 90.7186C39.7263 90.5849 39.4303 90.3883 39.1808 90.14C38.9312 89.8917 38.7328 89.5966 38.597 89.2714C38.4612 88.9463 38.3906 88.5975 38.3893 88.245Z" fill="#91A88C"/>
<path d="M110.574 88.0069C110.574 87.6545 110.643 87.3055 110.777 86.9798C110.912 86.6542 111.109 86.3583 111.357 86.109C111.606 85.8597 111.901 85.662 112.226 85.5271C112.55 85.3921 112.899 85.3227 113.25 85.3227L117.5 85.3227C117.616 85.3227 128.264 85.2747 140.377 79.4284C147.378 76.0649 153.631 71.3235 158.766 65.4866C165.215 58.1568 170.052 48.9599 173.143 38.1494C173.351 37.4797 173.812 36.9182 174.427 36.585C175.043 36.2519 175.764 36.1735 176.437 36.3667C177.109 36.5598 177.68 37.0092 178.026 37.6187C178.372 38.2282 178.467 38.9493 178.289 39.6277C174.961 51.2759 169.705 61.211 162.67 69.1609C157.028 75.5446 150.156 80.7191 142.469 84.3737C129.278 90.6774 117.961 90.6928 117.486 90.6894L113.25 90.6894C112.54 90.6894 111.86 90.4068 111.358 89.9037C110.856 89.4007 110.574 88.7184 110.574 88.0069Z" fill="#91A88C"/>
<path d="M170.71 137.236C170.709 138.163 170.465 139.074 170.002 139.877C169.539 140.68 168.873 141.346 168.072 141.809C167.27 142.273 166.605 142.94 166.143 143.743C165.68 144.546 165.436 145.457 165.436 146.385C165.436 147.312 165.68 148.223 166.143 149.026C166.605 149.829 167.27 150.496 168.072 150.96C168.872 151.425 169.535 152.092 169.996 152.896C170.457 153.699 170.699 154.61 170.698 155.537C170.697 156.464 170.941 157.376 171.403 158.179C171.865 158.982 172.53 159.65 173.331 160.114C174.132 160.578 175.04 160.822 175.965 160.823C176.89 160.823 177.799 160.579 178.601 160.116C179.402 159.652 180.31 159.408 181.235 159.408C182.16 159.408 183.069 159.652 183.87 160.116C184.671 160.58 185.58 160.825 186.505 160.826C187.43 160.826 188.339 160.582 189.141 160.119C189.943 159.656 190.608 158.989 191.071 158.186C191.534 157.383 191.778 156.471 191.778 155.544C191.779 154.616 192.023 153.706 192.486 152.903C192.949 152.1 193.615 151.434 194.416 150.97C195.217 150.506 195.882 149.839 196.344 149.036C196.806 148.233 197.05 147.322 197.05 146.395C197.05 145.468 196.806 144.557 196.344 143.754C195.882 142.951 195.217 142.284 194.416 141.82C193.615 141.356 192.95 140.688 192.488 139.885C192.025 139.081 191.782 138.17 191.783 137.243C191.784 136.315 191.541 135.404 191.078 134.601C190.616 133.797 189.951 133.13 189.15 132.666C188.349 132.202 187.441 131.957 186.516 131.957C185.591 131.957 184.682 132.2 183.88 132.664C183.079 133.127 182.171 133.372 181.246 133.372C180.321 133.372 179.412 133.127 178.611 132.664C177.81 132.201 176.902 131.958 175.978 131.958C175.054 131.958 174.146 132.202 173.345 132.665C172.545 133.129 171.88 133.795 171.417 134.597C170.955 135.399 170.711 136.309 170.71 137.236Z" fill="#F74700"/>
<path d="M175.096 141.047C175.095 141.588 174.953 142.119 174.683 142.588C174.413 143.056 174.025 143.445 173.558 143.716C173.09 143.986 172.702 144.376 172.432 144.845C172.162 145.313 172.019 145.845 172.019 146.386C172.019 146.928 172.162 147.46 172.432 147.928C172.702 148.397 173.09 148.786 173.558 149.057C174.025 149.328 174.414 149.717 174.684 150.186C174.953 150.654 175.096 151.186 175.096 151.727C175.095 152.269 175.237 152.801 175.507 153.27C175.777 153.739 176.165 154.128 176.632 154.399C177.1 154.67 177.631 154.813 178.171 154.813C178.711 154.813 179.241 154.67 179.709 154.4C180.177 154.129 180.707 153.987 181.247 153.987C181.787 153.987 182.317 154.129 182.785 154.4C183.252 154.67 183.782 154.813 184.322 154.813C184.861 154.813 185.391 154.671 185.859 154.4C186.326 154.13 186.715 153.741 186.985 153.273C187.255 152.805 187.397 152.274 187.398 151.733C187.398 151.191 187.54 150.66 187.81 150.191C188.08 149.722 188.468 149.333 188.936 149.062C189.403 148.791 189.791 148.402 190.061 147.934C190.331 147.465 190.473 146.933 190.473 146.392C190.473 145.851 190.331 145.32 190.061 144.851C189.791 144.383 189.403 143.993 188.936 143.723C188.468 143.452 188.08 143.062 187.81 142.593C187.54 142.124 187.398 141.592 187.398 141.051C187.398 140.509 187.257 139.977 186.987 139.508C186.717 139.039 186.329 138.65 185.861 138.379C185.393 138.108 184.863 137.965 184.323 137.965C183.783 137.965 183.252 138.108 182.785 138.378C182.317 138.649 181.787 138.791 181.247 138.791C180.707 138.791 180.177 138.649 179.709 138.378C179.242 138.108 178.711 137.965 178.172 137.965C177.632 137.965 177.101 138.107 176.634 138.378C176.166 138.648 175.778 139.037 175.508 139.506C175.238 139.974 175.096 140.506 175.096 141.047Z" fill="#F4F0E1"/>
<path d="M176.179 146.392C176.179 149.196 178.446 151.469 181.243 151.469C184.04 151.469 186.308 149.196 186.308 146.392C186.308 143.587 184.04 141.314 181.243 141.314C178.446 141.314 176.179 143.587 176.179 146.392Z" fill="#F74700"/>
<path d="M179.244 146.391C179.244 147.498 180.139 148.396 181.243 148.396C182.347 148.396 183.242 147.498 183.242 146.391C183.242 145.285 182.347 144.387 181.243 144.387C180.139 144.387 179.244 145.285 179.244 146.391Z" fill="#F4F0E1"/>
<path d="M175.753 69.4812C175.752 71.3881 175.251 73.2612 174.299 74.912C173.347 76.5629 171.978 77.9333 170.33 78.8853C163.104 83.0633 163.099 93.5175 170.321 97.7022C171.968 98.6568 173.335 100.029 174.285 101.681C175.235 103.333 175.735 105.206 175.734 107.113C175.734 115.476 184.756 120.707 191.982 116.535C193.629 115.581 195.498 115.079 197.4 115.079C199.301 115.079 201.17 115.581 202.817 116.535C210.04 120.721 219.072 115.507 219.077 107.136C219.078 105.229 219.579 103.356 220.531 101.705C221.483 100.054 222.852 98.6836 224.5 97.7314C231.726 93.5535 231.731 83.0992 224.51 78.9145C222.863 77.9602 221.496 76.5881 220.546 74.9361C219.596 73.2841 219.096 71.4104 219.097 69.5035C219.097 61.1408 210.074 55.9094 202.848 60.0822C201.2 61.0358 199.332 61.5379 197.429 61.5379C195.527 61.5379 193.659 61.0358 192.011 60.0822C184.79 55.8957 175.758 61.1185 175.753 69.4812Z" fill="#F74700"/>
<path d="M183.989 76.6379C183.987 77.8188 183.675 78.9784 183.085 80.0006C182.495 81.0227 181.648 81.8715 180.628 82.462C176.149 85.0503 176.146 91.5304 180.628 94.1238C181.649 94.7153 182.496 95.5656 183.085 96.5895C183.674 97.6133 183.984 98.7745 183.984 99.9565C183.984 105.14 189.576 108.383 194.055 105.794C195.076 105.203 196.234 104.892 197.413 104.892C198.592 104.892 199.751 105.203 200.772 105.794C205.248 108.388 210.853 105.152 210.853 99.9702C210.855 98.7893 211.166 97.6297 211.756 96.6075C212.346 95.5854 213.194 94.7366 214.214 94.1461C218.694 91.5578 218.697 85.0777 214.214 82.4843C213.192 81.8936 212.344 81.0438 211.753 80.0203C211.163 78.9968 210.852 77.8356 210.851 76.6533C210.851 71.4699 205.259 68.2273 200.78 70.8155C199.759 71.4067 198.601 71.718 197.422 71.718C196.243 71.718 195.084 71.4067 194.063 70.8155C189.59 68.2187 183.992 71.4562 183.989 76.6379Z" fill="#F4F0E1"/>
<path d="M187.002 88.3084C187.002 94.0746 191.665 98.7489 197.417 98.7489C203.168 98.7489 207.831 94.0746 207.831 88.3084C207.831 82.5423 203.168 77.8679 197.417 77.8679C191.665 77.8679 187.002 82.5423 187.002 88.3084Z" fill="#F74700"/>
<path d="M193.305 88.3084C193.305 90.5846 195.146 92.4298 197.416 92.4298C199.687 92.4298 201.527 90.5846 201.527 88.3084C201.527 86.0322 199.687 84.187 197.416 84.187C195.146 84.187 193.305 86.0322 193.305 88.3084Z" fill="#F4F0E1"/>
<path d="M91.4008 80.2883C91.6075 79.4986 91.5922 78.661 91.7699 77.8644C93.769 68.8183 99.0659 62.3758 107.345 58.4223C109.318 57.4802 111.493 56.8926 113.631 56.377C119.131 55.0512 124.737 54.1981 130.278 52.194C130.378 52.8586 130.555 53.4067 130.521 53.9429C130.424 55.4846 130.263 57.0262 130.09 58.5525C129.636 62.5608 128.327 66.2351 125.844 69.4589C120.455 76.4581 113.265 79.9799 104.561 80.6411C101.632 80.8638 98.7362 81.1859 96.0826 82.6967C94.3739 83.6662 93.8374 85.7886 93.6733 87.2498C93.6586 87.3859 93.6018 87.514 93.511 87.6162C93.4201 87.7184 93.2997 87.7897 93.1665 87.82C93.0334 87.8504 92.8941 87.8383 92.7681 87.7855C92.6421 87.7328 92.5356 87.6419 92.4636 87.5255C91.7135 86.3333 90.9497 84.1202 91.4008 80.2883Z" fill="#91A88C"/>
<path d="M91.4008 95.2887C91.6075 96.0784 91.5922 96.916 91.7699 97.7126C93.769 106.759 99.0659 113.201 107.345 117.155C109.318 118.097 111.493 118.684 113.631 119.2C119.131 120.526 124.737 121.379 130.278 123.383C130.378 122.718 130.555 122.17 130.521 121.634C130.424 120.092 130.263 118.551 130.09 117.025C129.636 113.016 128.327 109.342 125.844 106.118C120.455 99.1189 113.265 95.5971 104.561 94.9358C101.632 94.7132 98.7362 94.3911 96.0826 92.8803C94.3739 91.909 93.8374 89.7867 93.6733 88.3272C93.6589 88.191 93.6023 88.0627 93.5116 87.9602C93.4208 87.8578 93.3005 87.7863 93.1672 87.7557C93.034 87.7251 92.8946 87.7371 92.7684 87.7898C92.6423 87.8425 92.5357 87.9334 92.4636 88.0497C91.7135 89.2454 90.9497 91.4568 91.4008 95.2887Z" fill="#91A88C"/>
<path d="M170.71 21.2733C170.709 22.2007 170.465 23.1114 170.002 23.9142C169.539 24.717 168.873 25.3835 168.072 25.8469C167.27 26.3105 166.605 26.9774 166.143 27.7806C165.68 28.5837 165.436 29.4948 165.436 30.4222C165.436 31.3497 165.68 32.2607 166.143 33.0639C166.605 33.867 167.27 34.5339 168.072 34.9976C168.871 35.4619 169.534 36.1287 169.995 36.9312C170.456 37.7336 170.698 38.6435 170.698 39.5695C170.697 40.4968 170.941 41.408 171.403 42.2114C171.865 43.0147 172.53 43.682 173.331 44.146C174.132 44.6101 175.04 44.8546 175.965 44.855C176.89 44.8554 177.799 44.6116 178.601 44.1482C179.402 43.6845 180.31 43.4404 181.235 43.4404C182.16 43.4404 183.069 43.6845 183.87 44.1482C184.671 44.6126 185.58 44.8574 186.505 44.8579C187.43 44.8585 188.339 44.6148 189.141 44.1515C189.943 43.6881 190.608 43.0213 191.071 42.2181C191.534 41.415 191.778 40.5039 191.778 39.5763C191.779 38.6489 192.023 37.7381 192.486 36.9353C192.949 36.1324 193.615 35.4659 194.416 35.0027C195.217 34.5387 195.882 33.8717 196.344 33.0686C196.806 32.2655 197.05 31.3546 197.05 30.4274C197.05 29.5002 196.806 28.5893 196.344 27.7862C195.882 26.9831 195.217 26.316 194.416 25.8521C193.615 25.3881 192.95 24.7209 192.488 23.9174C192.025 23.1139 191.782 22.2025 191.783 21.275C191.784 20.3476 191.541 19.4365 191.078 18.6331C190.616 17.8297 189.951 17.1625 189.15 16.6984C188.349 16.2344 187.441 15.9899 186.516 15.9895C185.591 15.9891 184.682 16.2329 183.88 16.6963C183.079 17.1596 182.171 17.4035 181.246 17.4035C180.321 17.4035 179.412 17.1596 178.611 16.6963C177.81 16.2334 176.901 15.99 175.977 15.9905C175.052 15.991 174.144 16.2354 173.343 16.6992C172.542 17.163 171.878 17.8299 171.415 18.6328C170.953 19.4356 170.71 20.3463 170.71 21.2733Z" fill="#F74700"/>
<path d="M175.096 25.0847C175.096 25.626 174.954 26.1577 174.684 26.6265C174.414 27.0953 174.026 27.4846 173.558 27.7552C173.091 28.0259 172.703 28.4151 172.433 28.8837C172.163 29.3523 172.021 29.8838 172.021 30.4249C172.021 30.9659 172.163 31.4974 172.433 31.966C172.703 32.4346 173.091 32.8238 173.558 33.0945C174.026 33.3653 174.414 33.7548 174.684 34.2239C174.954 34.693 175.096 35.2252 175.096 35.7667C175.096 36.3081 175.238 36.8401 175.507 37.3091C175.777 37.7781 176.165 38.1676 176.633 38.4385C177.101 38.7093 177.631 38.8519 178.171 38.852C178.711 38.8521 179.242 38.7096 179.709 38.4389C180.177 38.1683 180.707 38.0259 181.247 38.0259C181.787 38.0259 182.318 38.1683 182.785 38.4389C183.253 38.7095 183.783 38.852 184.323 38.852C184.862 38.8521 185.393 38.7098 185.86 38.4393C186.328 38.1689 186.716 37.7798 186.986 37.3113C187.256 36.8428 187.398 36.3113 187.399 35.7702C187.399 35.2292 187.541 34.6978 187.811 34.2293C188.081 33.7609 188.469 33.3719 188.936 33.1014C189.404 32.8308 189.792 32.4415 190.062 31.9727C190.332 31.504 190.475 30.9722 190.475 30.4308C190.475 29.8895 190.332 29.3577 190.062 28.889C189.792 28.4202 189.404 28.0309 188.936 27.7603C188.469 27.4897 188.08 27.1004 187.811 26.6316C187.541 26.1629 187.398 25.6311 187.399 25.0898C187.399 24.5484 187.257 24.0165 186.987 23.5475C186.717 23.0785 186.329 22.689 185.862 22.4181C185.394 22.1472 184.863 22.0046 184.323 22.0045C183.783 22.0044 183.253 22.1469 182.785 22.4176C182.318 22.6882 181.787 22.8307 181.247 22.8307C180.707 22.8307 180.177 22.6882 179.709 22.4176C179.242 22.1471 178.712 22.0047 178.172 22.0045C177.633 22.0044 177.103 22.1466 176.635 22.4168C176.168 22.6871 175.779 23.0758 175.509 23.5441C175.239 24.0124 175.097 24.5437 175.096 25.0847Z" fill="#F4F0E1"/>
<path d="M176.179 30.429C176.179 33.2331 178.446 35.5063 181.243 35.5063C184.04 35.5063 186.308 33.2331 186.308 30.429C186.308 27.625 184.04 25.3518 181.243 25.3518C178.446 25.3518 176.179 27.625 176.179 30.429Z" fill="#F74700"/>
<path d="M179.244 30.4291C179.244 31.536 180.139 32.4333 181.243 32.4333C182.347 32.4333 183.242 31.536 183.242 30.4291C183.242 29.3222 182.347 28.4249 181.243 28.4249C180.139 28.4249 179.244 29.3222 179.244 30.4291Z" fill="#F4F0E1"/>
</g>
<defs>
<clipPath id="clip0">
<rect width="185" height="244" fill="white" transform="translate(244) rotate(90)"/>
</clipPath>
</defs>
</svg>
